<?xml version="1.0" standalone="no"?>
<!DOCTYPE svg PUBLIC "-//W3C//DTD SVG 20010904//EN"
 "http://www.w3.org/TR/2001/REC-SVG-20010904/DTD/svg10.dtd">
<svg version="1.0" xmlns="http://www.w3.org/2000/svg"
 width="75px" height="50px" viewBox="0 0 219.000000 220.000000"
 preserveAspectRatio="xMidYMid meet">

<g transform="translate(0.000000,220.000000) scale(0.100000,-0.100000)"
fill="current" stroke="#5e3bee">
<path d="M540 1362 l0 -657 173 -173 c95 -94 176 -172 180 -172 4 0 7 55 7
123 l0 122 -90 90 -90 90 0 392 c0 307 3 393 12 393 7 0 154 -141 325 -312
l313 -313 0 130 0 130 -408 408 c-224 224 -410 407 -415 407 -4 0 -7 -296 -7
-658z"/>
<path d="M1340 1665 l0 -130 90 -90 90 -90 0 -392 c0 -307 -3 -393 -12 -393
-7 0 -154 141 -325 312 l-313 313 0 -130 0 -130 408 -408 c224 -224 410 -407
415 -407 4 0 7 296 7 658 l0 657 -180 180 -180 180 0 -130z"/>
</g>
</svg>
